<?xml version="1.0" standalone="no"?>
<!DOCTYPE svg PUBLIC "-//W3C//DTD SVG 20010904//EN"
 "http://www.w3.org/TR/2001/REC-SVG-20010904/DTD/svg10.dtd">
<svg version="1.0" xmlns="http://www.w3.org/2000/svg"
 width="16.000000pt" height="16.000000pt" viewBox="0 0 16.000000 16.000000"
 preserveAspectRatio="xMidYMid meet">
<metadata>
Created by potrace 1.11, written by Peter Selinger 2001-2013
</metadata>
<g transform="translate(0.000000,16.000000) scale(0.004000,-0.004000)"
fill="#000000" stroke="none">
<path d="M1990 3685 c-7 -9 -21 -13 -31 -10 -20 7 -26 -9 -9 -20 17 -10 12
-38 -5 -31 -13 5 -14 2 -4 -15 9 -18 7 -25 -9 -42 -17 -16 -18 -24 -9 -44 6
-13 16 -22 24 -19 17 7 17 4 -8 -44 -18 -35 -21 -51 -15 -103 3 -34 11 -63 16
-65 6 -2 10 -10 10 -17 0 -7 9 -15 20 -18 16 -4 20 -14 20 -47 0 -38 6 -48 69
-114 79 -82 88 -97 111 -188 l18 -67 -66 -7 c-83 -9 -247 9 -332 35 -92 29
-144 27 -261 -14 -102 -35 -153 -43 -163 -26 -3 5 5 16 19 25 69 46 65 94 -12
128 -52 23 -88 19 -132 -13 -16 -12 -36 -19 -45 -16 -14 6 -14 11 -1 48 22 61
19 161 -5 209 -29 57 -43 61 -35 9 7 -49 -10 -103 -43 -132 -18 -17 -21 -16
-73 19 -50 33 -58 36 -107 31 -30 -3 -64 -13 -77 -21 -37 -24 -59 -20 -104 22
-32 29 -43 47 -50 82 l-7 45 -22 -35 c-36 -58 -26 -99 43 -166 48 -46 54 -64
29 -88 -23 -24 -47 -20 -120 19 -83 44 -125 46 -165 5 -28 -28 -29 -31 -15
-57 39 -74 141 -141 194 -128 15 4 30 11 33 17 11 17 56 -41 69 -87 18 -64 19
-136 3 -184 -8 -24 -12 -55 -8 -70 19 -83 51 -111 128 -111 53 0 82 -19 74
-48 -3 -14 4 -35 19 -57 13 -20 24 -47 24 -60 0 -13 23 -53 52 -91 32 -43 69
-110 100 -183 64 -152 73 -170 122 -235 23 -31 59 -89 81 -129 21 -39 51 -88
66 -107 32 -42 103 -80 150 -80 19 0 39 -4 46 -8 7 -4 19 -41 28 -82 8 -41 29
-115 45 -165 51 -158 52 -165 40 -297 -13 -135 -15 -141 -75 -213 -24 -27 -52
-70 -65 -94 -26 -51 -25 -52 67 -77 71 -19 113 -10 113 25 0 17 7 19 64 17 91
-3 106 4 106 53 0 23 7 59 16 82 15 35 15 53 5 142 -16 140 -17 265 -2 307 10
27 11 81 4 235 -5 110 -7 205 -6 211 2 6 48 19 102 29 l97 18 130 -32 c168
-40 264 -48 324 -27 25 9 60 16 77 16 18 0 62 11 99 25 36 14 100 28 143 31
l78 7 7 -29 c10 -40 64 -131 102 -174 27 -30 33 -46 36 -91 3 -45 6 -54 22
-54 14 0 23 12 34 43 9 28 19 42 31 42 21 0 47 -44 43 -74 -5 -34 16 -78 34
-74 9 2 24 25 34 52 23 58 43 82 92 107 20 10 51 39 70 65 39 54 35 61 75
-121 25 -114 28 -150 28 -295 -1 -213 -23 -299 -102 -390 -49 -56 -83 -105
-83 -118 0 -16 84 -25 136 -16 44 9 46 11 63 62 17 49 58 108 69 97 2 -2 -10
-25 -27 -51 -17 -26 -31 -53 -31 -60 0 -13 61 -21 123 -16 35 3 39 7 68 65 16
34 34 66 39 72 5 6 11 82 14 170 2 88 12 216 21 285 21 163 20 160 33 128 17
-40 28 -41 24 0 l-3 37 20 -25 c11 -14 21 -20 21 -15 0 6 5 48 10 93 11 85 9
101 -25 252 -10 45 -15 123 -15 250 0 102 -5 226 -10 275 -5 50 -12 189 -15
310 -3 121 -11 248 -16 282 -15 84 -66 164 -127 200 -45 27 -53 28 -264 37
l-217 9 -87 -32 c-47 -17 -105 -31 -128 -31 -23 0 -65 -7 -93 -15 -40 -12
-126 -16 -412 -18 -198 -1 -361 1 -361 5 0 4 9 8 20 8 11 0 20 5 20 11 0 6 -9
8 -22 4 -22 -6 -22 -6 -4 9 19 16 19 16 -2 16 -28 0 -31 40 -3 47 10 2 24 16
31 29 16 28 30 31 30 7 0 -15 4 -13 21 7 14 16 19 19 15 8 -7 -23 -4 -22 43 1
21 11 45 31 55 45 12 19 25 26 47 26 77 0 107 107 48 175 -17 19 -26 35 -21
35 6 0 24 -17 41 -37 35 -43 41 -94 15 -131 -14 -21 -14 -22 5 -22 25 0 61 45
61 76 0 12 -5 35 -11 51 -6 15 -11 50 -10 77 2 45 -1 51 -43 92 -25 23 -40 44
-35 46 20 7 -76 50 -122 55 -80 9 -139 -44 -139 -127 0 -22 -3 -29 -12 -23 -7
4 -33 10 -57 13 -35 4 -45 9 -46 25 -6 53 -38 165 -51 176 -20 16 -18 31 4 25
19 -6 30 0 51 27 12 15 10 20 -13 42 -15 14 -31 25 -37 25 -5 0 -9 8 -7 18 2
14 -4 17 -34 16 -21 0 -38 3 -38 8 0 13 -17 9 -30 -7z m436 -280 c-21 -16 -32
-13 -21 4 3 6 14 11 23 11 15 -1 15 -2 -2 -15z m137 -113 c9 -8 17 -19 17 -24
0 -11 -59 33 -59 45 -1 9 16 1 42 -21z m-75 -107 c7 -14 12 -35 12 -46 0 -20
-26 -79 -35 -79 -3 0 -5 19 -4 43 0 23 3 36 6 30 7 -18 23 -16 23 2 0 9 -7 29
-15 45 -9 17 -12 30 -7 30 5 0 14 -11 20 -25z m-72 -100 c-5 -14 -9 -15 -21
-5 -12 10 -13 16 -4 27 15 18 34 1 25 -22z m1460 -745 c0 -140 6 -287 12 -325
21 -131 25 -281 12 -425 -8 -77 -17 -140 -20 -140 -4 0 -11 23 -14 52 -4 29
-23 90 -42 136 -46 111 -49 140 -29 317 23 210 41 469 45 630 l2 80 16 -35
c14 -30 17 -74 18 -290z m-912 62 c4 -8 16 -127 33 -324 l6 -78 -32 0 c-25 0
-34 5 -38 21 -4 15 -12 19 -32 17 -15 -2 -26 -9 -26 -18 0 -10 -12 -16 -38
-18 l-37 -3 5 38 c9 69 25 247 26 303 1 30 4 58 6 63 6 10 121 9 127 -1z
m-1170 -11 c3 -5 -1 -74 -10 -154 -8 -81 -16 -168 -17 -193 -2 -42 -5 -48 -28
-55 -39 -10 -47 0 -63 74 -16 81 -26 95 -26 41 0 -97 -16 -126 -61 -117 -16 4
-50 124 -80 283 -6 36 -16 73 -21 82 -6 13 -3 20 12 28 26 14 59 4 58 -18 0
-21 31 -165 38 -171 4 -4 7 40 9 149 2 44 2 45 37 48 l36 3 12 -88 c7 -48 16
-94 20 -101 4 -8 10 30 14 83 4 54 9 102 12 106 7 12 51 12 58 0z m206 -16 c0
-22 -4 -25 -34 -25 -42 0 -44 -3 -38 -57 3 -37 7 -42 30 -45 19 -2 28 -10 30
-25 3 -20 -1 -23 -28 -23 l-32 0 7 -72 c9 -87 11 -91 39 -84 13 3 31 -1 42 -9
17 -12 17 -15 4 -29 -15 -15 -143 -26 -156 -13 -4 3 -9 96 -12 207 l-5 200 77
0 c74 0 76 -1 76 -25z m210 1 c0 -21 -5 -25 -37 -28 -38 -3 -38 -3 -38 -48 0
-42 2 -45 30 -50 43 -8 42 -44 -1 -48 -24 -2 -31 -7 -28 -20 2 -9 5 -44 8 -77
3 -33 5 -61 5 -63 1 -2 11 -3 24 -2 49 4 58 1 55 -22 -3 -22 -8 -23 -83 -23
l-80 0 -3 203 -2 202 75 0 c73 0 75 -1 75 -24z m560 -1 c0 -22 -4 -25 -34 -25
-43 0 -49 -10 -41 -60 6 -33 11 -39 33 -42 19 -2 28 -10 30 -25 3 -20 -1 -23
-28 -23 l-31 0 7 -106 7 -105 -44 3 -44 3 -3 203 -2 202 75 0 c73 0 75 -1 75
-25z m-1341 -11 c12 -15 21 -41 21 -60 0 -31 -3 -34 -30 -34 -27 0 -30 3 -30
33 0 38 -6 48 -26 40 -9 -3 -14 -20 -14 -45 0 -34 7 -47 51 -93 50 -53 52 -57
50 -110 -2 -84 -32 -117 -98 -108 -40 6 -61 29 -68 75 -5 32 -3 36 21 42 31 8
47 -4 49 -36 3 -41 30 -26 33 18 3 39 -1 46 -47 92 -44 43 -51 55 -51 89 0 21
6 45 13 52 10 11 10 13 0 7 -23 -13 -14 32 9 48 36 26 93 21 117 -10z m995 10
c8 -20 -10 -44 -33 -44 -14 0 -16 -19 -16 -168 l0 -167 -28 -3 c-41 -5 -59 14
-53 57 3 20 7 92 8 160 2 120 2 124 -20 132 -24 9 -25 10 -16 33 9 24 149 23
158 0z m771 2 c26 -19 35 -134 11 -151 -15 -12 -15 -20 4 -116 11 -57 20 -108
20 -112 0 -5 -14 -7 -32 -5 l-32 3 -17 93 c-9 51 -19 95 -23 99 -14 15 -19
-13 -18 -102 l1 -95 -29 0 c-28 0 -30 2 -31 43 0 23 -4 110 -9 192 -4 83 -6
153 -3 158 8 13 138 8 158 -7z m146 -19 c6 -24 5 -26 -7 -16 -12 10 -14 5 -13
-32 0 -33 2 -39 8 -24 5 11 7 23 4 28 -2 4 0 7 6 7 6 0 17 -24 25 -52 30 -114
34 -124 35 -100 2 36 43 196 54 210 6 7 22 12 36 10 l26 -3 0 -195 0 -195 -32
-3 -33 -3 -1 53 c-1 29 -3 60 -4 68 -1 8 -3 24 -4 34 -2 29 -13 11 -16 -26 -3
-47 -24 -118 -35 -118 -9 0 -36 104 -39 154 -2 37 -15 5 -16 -42 -4 -129 -2
-122 -34 -122 l-28 0 -7 190 c-4 104 -4 195 -1 200 4 6 21 10 38 8 24 -2 32
-9 38 -31z m403 -1425 c-4 -42 -11 -69 -17 -65 -5 3 -7 33 -3 72 3 36 6 70 6
76 0 5 4 5 10 -1 7 -7 8 -37 4 -82z m-1964 -371 c-11 -23 -23 -41 -26 -41 -11
0 6 63 23 89 27 40 29 2 3 -48z"/>
<path d="M2899 2269 c0 -8 -2 -25 -4 -39 -2 -14 -6 -49 -9 -77 -4 -48 -3 -53
16 -53 19 0 19 4 13 88 -7 80 -14 116 -16 81z"/>
<path d="M3106 2288 c1 -30 7 -53 13 -52 6 1 16 2 22 3 6 0 9 21 7 49 -2 39
-7 48 -24 50 -20 3 -21 -1 -18 -50z"/>
<path d="M645 1341 c-7 -35 -8 -35 -37 -20 -16 8 -22 8 -28 -2 -10 -16 -1 -78
15 -105 28 -45 9 -71 -130 -181 -144 -114 -171 -149 -200 -258 -21 -83 -19
-150 6 -202 12 -24 20 -46 17 -48 -2 -2 -33 6 -69 18 -122 41 -169 97 -169
201 0 58 23 119 54 145 21 17 21 41 0 41 -27 0 -73 -59 -89 -113 -39 -131 5
-237 125 -297 87 -44 131 -50 393 -50 233 0 247 1 247 18 0 11 -11 24 -24 30
-33 15 -46 65 -46 177 0 86 2 93 36 150 50 82 62 121 69 221 6 93 15 123 39
143 19 16 22 86 4 97 -6 4 -47 8 -92 8 -76 2 -81 3 -97 30 l-17 28 -7 -31z"/>
</g>
</svg>
